# xmcd CD database file
#
# Track frame offsets:
#	182
#	16435
#	30967
#	46265
#	57945
#	70047
#	82600
#	99217
#	111092
#	124427
#	138652
#
# Disc length: 2061 seconds
#
# Revision: 1
# Processed by: cddbd v1.5.1PL0 Copyright (c) Steve Scherf et al.
# Submitted via: CDex 1.50
#
DISCID=84080b0b
DTITLE=City Dump - The one in your Life
DYEAR=1994
DGENRE=Country
TTITLE0=I'm no Stranger to the Rain
TTITLE1=Boot Scootin' Boogie
TTITLE2=Where'm i gonna Live
TTITLE3=Cajun Night
TTITLE4=Young and restless Heart
TTITLE5=Love's got a hold on You
TTITLE6=I don't Care
TTITLE7=The one in yout Life
TTITLE8=I was there
TTITLE9=Mirror Mirror
TTITLE10=Precious Thing
EXTD=YEAR: 1994
EXTT0=
EXTT1=
EXTT2=
EXTT3=
EXTT4=
EXTT5=
EXTT6=
EXTT7=
EXTT8=
EXTT9=
EXTT10=
PLAYORDER=
